<svg width="540" height="324" viewBox="0 0 540 324" fill="none" xmlns="http://www.w3.org/2000/svg">
<g clip-path="url(#clip0_2_9766)">
<path d="M1.44 320V318.956H3.408V312.596H4.032L1.632 314.06V312.86L3.756 311.54H4.656V318.956H6.504V320H1.44ZM11.7905 320V311.54H12.7505L17.9465 318.356H17.6465V311.54H18.8105V320H17.8625L12.6785 313.184H12.9545V320H11.7905ZM23.4745 320.108C22.8745 320.108 22.3545 319.984 21.9145 319.736C21.4745 319.48 21.1345 319.12 20.8945 318.656C20.6545 318.184 20.5345 317.624 20.5345 316.976C20.5345 316.328 20.6545 315.772 20.8945 315.308C21.1345 314.836 21.4745 314.476 21.9145 314.228C22.3545 313.972 22.8745 313.844 23.4745 313.844C24.0745 313.844 24.5945 313.972 25.0345 314.228C25.4825 314.476 25.8265 314.836 26.0665 315.308C26.3145 315.772 26.4385 316.328 26.4385 316.976C26.4385 317.624 26.3145 318.184 26.0665 318.656C25.8265 319.12 25.4825 319.48 25.0345 319.736C24.5945 319.984 24.0745 320.108 23.4745 320.108ZM23.4745 319.16C24.0025 319.16 24.4225 318.976 24.7345 318.608C25.0465 318.24 25.2025 317.696 25.2025 316.976C25.2025 316.256 25.0465 315.716 24.7345 315.356C24.4225 314.988 24.0025 314.804 23.4745 314.804C22.9545 314.804 22.5385 314.988 22.2265 315.356C21.9145 315.716 21.7585 316.256 21.7585 316.976C21.7585 317.696 21.9105 318.24 22.2145 318.608C22.5265 318.976 22.9465 319.16 23.4745 319.16ZM29.7257 320L27.1337 313.952H28.4297L30.4697 319.004H30.1217L32.1977 313.952H33.4337L30.8297 320H29.7257Z" fill="#737B7D"/>
<rect y="244" width="284" height="1" fill="#E2E5E6"/>
<rect y="195" width="284" height="1" fill="#E2E5E6"/>
<rect y="146" width="284" height="1" fill="#E2E5E6"/>
<rect y="97" width="284" height="1" fill="#E2E5E6"/>
<rect y="48" width="284" height="1" fill="#E2E5E6"/>
<rect y="293" width="284" height="1" fill="#E2E5E6"/>
</g>
<g clip-path="url(#clip1_2_9766)">
<path d="M502.414 320.108C501.838 320.108 501.286 320.024 500.758 319.856C500.23 319.68 499.79 319.432 499.438 319.112L499.87 318.164C500.262 318.468 500.662 318.692 501.07 318.836C501.478 318.98 501.914 319.052 502.378 319.052C502.97 319.052 503.418 318.928 503.722 318.68C504.034 318.432 504.19 318.076 504.19 317.612C504.19 317.156 504.034 316.812 503.722 316.58C503.418 316.34 502.966 316.22 502.366 316.22H501.058V315.212H502.27C502.782 315.212 503.19 315.084 503.494 314.828C503.798 314.564 503.95 314.208 503.95 313.76C503.95 313.352 503.81 313.04 503.53 312.824C503.25 312.6 502.85 312.488 502.33 312.488C501.45 312.488 500.678 312.796 500.014 313.412L499.594 312.464C499.922 312.136 500.338 311.884 500.842 311.708C501.346 311.524 501.874 311.432 502.426 311.432C503.274 311.432 503.942 311.628 504.43 312.02C504.918 312.404 505.162 312.94 505.162 313.628C505.162 314.148 505.014 314.592 504.718 314.96C504.43 315.328 504.034 315.572 503.53 315.692V315.56C504.13 315.656 504.59 315.896 504.91 316.28C505.238 316.656 505.402 317.128 505.402 317.696C505.402 318.448 505.134 319.04 504.598 319.472C504.07 319.896 503.342 320.108 502.414 320.108ZM509.893 320.108C508.917 320.108 508.165 319.736 507.637 318.992C507.117 318.24 506.857 317.164 506.857 315.764C506.857 314.34 507.117 313.264 507.637 312.536C508.165 311.8 508.917 311.432 509.893 311.432C510.877 311.432 511.629 311.8 512.149 312.536C512.669 313.264 512.929 314.336 512.929 315.752C512.929 317.16 512.665 318.24 512.137 318.992C511.617 319.736 510.869 320.108 509.893 320.108ZM509.893 319.064C510.509 319.064 510.965 318.796 511.261 318.26C511.565 317.724 511.717 316.888 511.717 315.752C511.717 314.608 511.565 313.776 511.261 313.256C510.965 312.728 510.509 312.464 509.893 312.464C509.285 312.464 508.829 312.728 508.525 313.256C508.221 313.776 508.069 314.604 508.069 315.74C508.069 316.884 508.221 317.724 508.525 318.26C508.837 318.796 509.293 319.064 509.893 319.064ZM518.084 320V311.54H519.044L524.24 318.356H523.94V311.54H525.104V320H524.156L518.972 313.184H519.248V320H518.084ZM529.768 320.108C529.168 320.108 528.648 319.984 528.208 319.736C527.768 319.48 527.428 319.12 527.188 318.656C526.948 318.184 526.828 317.624 526.828 316.976C526.828 316.328 526.948 315.772 527.188 315.308C527.428 314.836 527.768 314.476 528.208 314.228C528.648 313.972 529.168 313.844 529.768 313.844C530.368 313.844 530.888 313.972 531.328 314.228C531.776 314.476 532.12 314.836 532.36 315.308C532.608 315.772 532.732 316.328 532.732 316.976C532.732 317.624 532.608 318.184 532.36 318.656C532.12 319.12 531.776 319.48 531.328 319.736C530.888 319.984 530.368 320.108 529.768 320.108ZM529.768 319.16C530.296 319.16 530.716 318.976 531.028 318.608C531.34 318.24 531.496 317.696 531.496 316.976C531.496 316.256 531.34 315.716 531.028 315.356C530.716 314.988 530.296 314.804 529.768 314.804C529.248 314.804 528.832 314.988 528.52 315.356C528.208 315.716 528.052 316.256 528.052 316.976C528.052 317.696 528.204 318.24 528.508 318.608C528.82 318.976 529.24 319.16 529.768 319.16ZM536.019 320L533.427 313.952H534.723L536.763 319.004H536.415L538.491 313.952H539.727L537.123 320H536.019Z" fill="#737B7D"/>
<rect x="284" y="244" width="256" height="1" fill="#E2E5E6"/>
<rect x="284" y="195" width="256" height="1" fill="#E2E5E6"/>
<rect x="284" y="146" width="256" height="1" fill="#E2E5E6"/>
<rect x="284" y="97" width="256" height="1" fill="#E2E5E6"/>
<rect x="284" y="48" width="256" height="1" fill="#E2E5E6"/>
<rect x="284" y="293" width="256" height="1" fill="#E2E5E6"/>
</g>
<g clip-path="url(#clip2_2_9766)">
<g clip-path="url(#clip3_2_9766)">
<path opacity="0.1" d="M-356.391 176.166L-389.55 287.632C-390.694 291.479 -387.812 295.343 -383.799 295.343H2590.5C2593.81 295.343 2596.5 292.657 2596.5 289.343V27.5166C2596.5 26.043 2595.96 24.6209 2594.98 23.5215L2560.85 -14.721C2558.02 -17.8907 2552.88 -17.1974 2551 -13.3912L2516.42 56.3516C2514.81 59.6007 2510.7 60.6891 2507.69 58.6657L2478.13 38.7905C2474.91 36.6251 2470.51 38.041 2469.16 41.6786L2434.45 135.013C2432.73 139.657 2426.43 140.325 2423.77 136.147L2392.95 87.7964C2390.81 84.4427 2386.06 84.0592 2383.41 87.0266L2352.4 121.773C2349.75 124.741 2345 124.357 2342.87 121.004L2308.87 67.6701C2307.06 64.8275 2303.26 64.0352 2300.46 65.916L2268.93 87.1133C2266.2 88.9494 2262.5 88.243 2260.64 85.5298L2228.36 38.5178C2225.74 34.6957 2219.96 35.1665 2217.99 39.3627L2183.85 112.04C2182.29 115.369 2178.12 116.521 2175.07 114.469L2144.72 94.0666C2141.81 92.1082 2137.85 93.0576 2136.14 96.1232L2100.43 160.142C2098.91 162.859 2095.57 163.967 2092.73 162.695L2060.76 148.362C2058.11 147.176 2055 148.051 2053.35 150.441L2020.26 198.652C2017.7 202.377 2012.1 202.046 2010 198.045L1976.64 134.507C1974.83 131.045 1970.24 130.218 1967.33 132.828L1935.98 160.929C1933.51 163.144 1929.71 162.933 1927.5 160.456L1894.18 123.13C1891.88 120.55 1887.88 120.445 1885.45 122.9L1853.99 154.623C1851.18 157.458 1846.43 156.807 1844.49 153.321L1809.74 91.0213C1808.12 88.1235 1804.46 87.0878 1801.57 88.7096L1770.03 106.38C1767.32 107.896 1763.91 107.099 1762.15 104.541L1727.79 54.4907C1725.66 51.3881 1721.23 50.9895 1718.58 53.6618L1686.39 86.132C1684.04 88.499 1680.21 88.499 1677.86 86.132L1646.61 54.6081C1643.67 51.6484 1638.69 52.5093 1636.91 56.282L1603.45 127.523C1601.48 131.719 1595.7 132.19 1593.07 128.368L1560.54 80.9732C1558.78 78.4153 1555.37 77.6181 1552.66 79.1346L1521.12 96.8046C1518.22 98.4265 1514.56 97.3908 1512.95 94.4929L1478.2 32.1936C1476.25 28.7068 1471.51 28.0566 1468.7 30.8916L1437.24 62.6143C1434.81 65.0694 1430.81 64.9642 1428.5 62.3846L1395.19 25.0578C1392.98 22.5817 1389.18 22.3699 1386.71 24.5852L1355.36 52.6863C1352.45 55.2958 1347.86 54.4689 1346.04 51.0074L1312.69 -12.5307C1310.59 -16.5314 1304.99 -16.8627 1302.43 -13.1376L1269.33 35.0733C1267.69 37.4632 1264.58 38.3384 1261.93 37.1527L1229.95 22.8197C1227.12 21.5475 1223.78 22.6556 1222.26 25.3722L1186.55 89.3911C1184.84 92.4566 1180.88 93.4061 1177.96 91.4476L1147.62 71.0454C1144.57 68.9935 1140.4 70.1451 1138.84 73.4738L1104.7 146.152C1102.73 150.348 1096.95 150.819 1094.32 146.996L1062.05 99.9845C1060.19 97.2713 1056.49 96.5648 1053.76 98.401L1022.23 119.598C1019.43 121.479 1015.63 120.687 1013.82 117.844L979.822 64.5107C977.684 61.157 972.934 60.7735 970.286 63.7408L939.276 98.4877C936.628 101.455 931.878 101.072 929.74 97.7178L898.918 49.3669C896.255 45.1888 889.962 45.8568 888.235 50.5008L853.528 143.836C852.176 147.473 847.778 148.889 844.557 146.724L814.994 126.849C811.985 124.825 807.882 125.914 806.271 129.163L771.693 198.905C769.805 202.712 764.669 203.405 761.84 200.235L730.664 165.302C728.278 162.628 724.097 162.628 721.711 165.302L690.074 200.752C687.374 203.777 682.514 203.309 680.441 199.824L647.024 143.658C645.018 140.287 640.37 139.716 637.607 142.502L604.131 176.261C602.52 177.885 600.127 178.453 597.958 177.724L561.838 165.582C560.604 165.167 559.539 164.363 558.803 163.29L522.478 110.376C520.348 107.274 515.921 106.875 513.271 109.547L480.305 142.793C478.278 144.836 475.085 145.153 472.697 143.547L439.998 121.563C437.34 119.777 433.747 120.392 431.836 122.962L397.102 169.666C395.19 172.236 391.598 172.852 388.94 171.065L356.241 149.081C353.852 147.475 350.66 147.792 348.633 149.836L315.667 183.081C313.017 185.753 308.59 185.355 306.46 182.252L270.135 129.338C269.398 128.266 268.333 127.462 267.1 127.047L230.979 114.905C228.811 114.176 226.417 114.743 224.807 116.367L192.583 148.864C189.474 151.999 184.157 150.815 182.672 146.656L149.344 53.2947C147.525 48.198 140.419 47.9249 138.214 52.8669L106.53 123.872C104.756 127.847 99.4723 128.67 96.5739 125.422L67.0971 92.3932C64.2684 89.2236 59.1321 89.9169 57.245 93.7231L22.6663 163.466C21.0554 166.715 16.9527 167.803 13.9431 165.78L-15.3748 146.069C-18.6713 143.853 -23.1727 145.394 -24.4193 149.166L-59.0627 253.975C-60.7246 259.003 -67.6105 259.57 -70.072 254.881L-101.038 195.894C-102.985 192.185 -108.038 191.563 -110.827 194.688L-141.349 228.888C-143.997 231.855 -148.747 231.472 -150.885 228.118L-184.883 174.784C-186.695 171.942 -190.492 171.149 -193.29 173.03L-224.819 194.228C-227.55 196.064 -231.25 195.357 -233.113 192.644L-266.767 143.622C-269.036 140.316 -273.847 140.123 -276.373 143.237L-309.97 184.648C-311.683 186.759 -314.602 187.455 -317.083 186.342L-348.186 172.402C-351.497 170.918 -355.356 172.689 -356.391 176.166Z" fill="#113333"/>
<path d="M-391.844 295.343L-356.391 176.166C-355.356 172.689 -351.497 170.918 -348.186 172.402L-317.083 186.342C-314.602 187.455 -311.683 186.759 -309.97 184.648L-276.373 143.237C-273.847 140.123 -269.036 140.316 -266.767 143.622L-233.113 192.644C-231.25 195.357 -227.55 196.064 -224.819 194.228L-193.29 173.03C-190.492 171.149 -186.695 171.942 -184.883 174.784L-150.885 228.118C-148.747 231.472 -143.997 231.855 -141.349 228.888L-110.827 194.688C-108.038 191.563 -102.985 192.185 -101.038 195.894L-70.072 254.881C-67.6105 259.57 -60.7246 259.003 -59.0627 253.975L-24.4193 149.166C-23.1727 145.394 -18.6713 143.853 -15.3748 146.069L13.9431 165.78C16.9527 167.803 21.0554 166.715 22.6663 163.466L57.245 93.7231C59.1321 89.9169 64.2684 89.2236 67.0971 92.3932L96.5739 125.422C99.4723 128.67 104.756 127.847 106.53 123.872L138.214 52.8669C140.419 47.9249 147.525 48.198 149.344 53.2947L182.672 146.656C184.157 150.815 189.474 151.999 192.583 148.864L224.807 116.367C226.417 114.743 228.811 114.176 230.979 114.905L267.1 127.047C268.333 127.462 269.398 128.266 270.135 129.338L306.46 182.252C308.59 185.355 313.017 185.753 315.667 183.081L348.633 149.836C350.66 147.792 353.852 147.475 356.241 149.081L388.94 171.065C391.598 172.852 395.19 172.236 397.102 169.666L431.836 122.962C433.747 120.392 437.34 119.777 439.998 121.563L472.697 143.547C475.085 145.153 478.278 144.836 480.305 142.793L513.271 109.547C515.921 106.875 520.348 107.274 522.478 110.376L558.803 163.29C559.539 164.363 560.604 165.167 561.838 165.582L597.958 177.724C600.127 178.453 602.52 177.885 604.131 176.261L637.607 142.502C640.369 139.716 645.018 140.287 647.024 143.658L680.441 199.824C682.514 203.309 687.374 203.777 690.074 200.752L721.711 165.302C724.097 162.628 728.278 162.628 730.664 165.302L761.84 200.235C764.669 203.405 769.805 202.712 771.692 198.905L806.271 129.163C807.882 125.914 811.985 124.825 814.994 126.849L844.557 146.724C847.778 148.889 852.176 147.473 853.528 143.836L888.235 50.5008C889.962 45.8568 896.255 45.1888 898.918 49.3668L929.74 97.7179C931.878 101.072 936.628 101.455 939.276 98.4877L970.286 63.7408C972.934 60.7735 977.684 61.157 979.822 64.5107L1013.82 117.844C1015.63 120.687 1019.43 121.479 1022.23 119.598L1053.76 98.401C1056.49 96.5648 1060.19 97.2713 1062.05 99.9845L1094.32 146.996C1096.95 150.819 1102.73 150.348 1104.7 146.152L1138.84 73.4738C1140.4 70.1451 1144.57 68.9935 1147.62 71.0454L1177.96 91.4476C1180.88 93.4061 1184.84 92.4566 1186.55 89.3911L1222.26 25.3722C1223.78 22.6556 1227.12 21.5475 1229.95 22.8197L1261.93 37.1527C1264.58 38.3384 1267.69 37.4632 1269.33 35.0733L1302.43 -13.1376C1304.99 -16.8627 1310.59 -16.5314 1312.69 -12.5307L1346.04 51.0074C1347.86 54.4689 1352.45 55.2958 1355.36 52.6863L1386.71 24.5852C1389.18 22.3699 1392.98 22.5817 1395.19 25.0578L1428.5 62.3846C1430.81 64.9642 1434.81 65.0694 1437.24 62.6143L1468.7 30.8916C1471.51 28.0566 1476.25 28.7068 1478.2 32.1936L1512.95 94.4929C1514.56 97.3908 1518.22 98.4265 1521.12 96.8047L1552.66 79.1346C1555.37 77.6181 1558.78 78.4153 1560.54 80.9732L1593.07 128.368C1595.7 132.19 1601.48 131.719 1603.45 127.523L1636.91 56.282C1638.69 52.5093 1643.67 51.6484 1646.61 54.6081L1677.86 86.132C1680.21 88.4991 1684.04 88.499 1686.39 86.132L1718.58 53.6617C1721.23 50.9895 1725.66 51.3881 1727.79 54.4907L1762.15 104.541C1763.91 107.099 1767.32 107.896 1770.03 106.38L1801.57 88.7096C1804.46 87.0878 1808.12 88.1235 1809.74 91.0213L1844.49 153.321C1846.43 156.808 1851.18 157.458 1853.99 154.623L1885.45 122.9C1887.88 120.445 1891.88 120.55 1894.18 123.13L1927.5 160.456C1929.71 162.933 1933.51 163.144 1935.98 160.929L1967.33 132.828C1970.24 130.218 1974.83 131.045 1976.64 134.507L2010 198.045C2012.1 202.046 2017.7 202.377 2020.26 198.652L2053.35 150.441C2055 148.051 2058.11 147.176 2060.76 148.362L2092.73 162.695C2095.57 163.967 2098.91 162.859 2100.43 160.142L2136.14 96.1232C2137.85 93.0576 2141.81 92.1082 2144.72 94.0666L2175.07 114.469C2178.12 116.521 2182.29 115.369 2183.85 112.04L2217.99 39.3627C2219.96 35.1665 2225.74 34.6957 2228.36 38.5178L2260.64 85.5298C2262.5 88.243 2266.2 88.9494 2268.93 87.1133L2300.46 65.916C2303.26 64.0352 2307.06 64.8275 2308.87 67.6701L2342.87 121.004C2345 124.357 2349.75 124.741 2352.4 121.773L2383.41 87.0265C2386.06 84.0592 2390.81 84.4427 2392.95 87.7964L2423.77 136.147C2426.43 140.325 2432.73 139.657 2434.45 135.013L2469.16 41.6786C2470.51 38.041 2474.91 36.6251 2478.13 38.7905L2507.69 58.6657C2510.7 60.6891 2514.81 59.6007 2516.42 56.3516L2551 -13.3912C2552.88 -17.1974 2558.02 -17.8907 2560.85 -14.721L2596.5 25.2286" stroke="#113333"/>
</g>
</g>
<defs>
<clipPath id="clip0_2_9766">
<rect width="284" height="324" fill="white"/>
</clipPath>
<clipPath id="clip1_2_9766">
<rect width="256" height="324" fill="white" transform="translate(284)"/>
</clipPath>
<clipPath id="clip2_2_9766">
<rect width="540" height="293" fill="white"/>
</clipPath>
<clipPath id="clip3_2_9766">
<rect width="1064" height="326" fill="white" transform="translate(-396 -26)"/>
</clipPath>
</defs>
</svg>
